<?xml version="1.0" standalone="no"?>
<!DOCTYPE svg PUBLIC "-//W3C//DTD SVG 20010904//EN"
 "http://www.w3.org/TR/2001/REC-SVG-20010904/DTD/svg10.dtd">
<svg version="1.0" xmlns="http://www.w3.org/2000/svg"
 width="800" height="800" viewBox="0 0 500.000000 500.000000"
 preserveAspectRatio="xMidYMid meet">

<g transform="translate(0.000000,500.000000) scale(0.100000,-0.100000)"
fill="##6D28D9" stroke="none">
<path d="M1535 3447 c-18 -15 -28 -36 -32 -65 l-6 -42 297 0 296 0 0 65 0 65
-264 0 c-260 0 -265 0 -291 -23z"/>
<path d="M2730 3405 l0 -65 296 0 297 0 -6 42 c-4 29 -14 50 -32 65 -26 23
-31 23 -291 23 l-264 0 0 -65z"/>
<path d="M2100 2730 l0 -600 158 0 157 0 17 -31 18 -30 -113 2 c-119 2 -149
-5 -184 -43 -38 -41 -39 -76 -2 -132 39 -58 128 -131 184 -149 l40 -14 -40
-13 c-100 -32 -129 -74 -82 -118 38 -36 90 -37 202 -3 90 27 101 29 112 14 11
-14 20 -14 107 2 l96 17 201 -52 c197 -50 205 -51 323 -48 93 2 130 7 159 22
60 30 46 80 -31 107 -29 10 -93 3 -167 -18 -11 -3 1 14 31 43 28 27 63 76 80
109 25 51 29 72 29 138 l0 78 -41 38 c-22 21 -46 40 -53 42 -10 4 -18 74 -31
276 -19 304 -22 314 -90 334 -22 7 -40 18 -40 24 0 68 -43 384 -57 412 -37 79
-143 109 -245 70 -63 -25 -87 -61 -103 -155 l-13 -77 -1 178 -1 177 -310 0
-310 0 0 -600z m380 440 c40 -11 104 -71 119 -113 37 -98 -25 -218 -127 -247
-46 -12 -48 -12 -95 1 -21 5 -54 24 -74 42 -149 131 -16 371 177 317z m485
-13 c39 -22 85 -78 85 -103 0 -9 -12 -14 -33 -14 -66 0 -101 -54 -72 -110 17
-32 51 -46 90 -36 41 10 32 -30 -19 -80 -36 -36 -50 -44 -81 -44 -49 0 -93 27
-116 72 -26 51 -24 58 14 51 72 -11 117 77 66 128 -17 17 -30 20 -64 16 l-43
-4 5 36 c7 49 28 80 66 96 43 19 56 18 102 -8z m-71 -149 c9 -12 16 -33 16
-45 0 -45 -72 -83 -97 -50 -20 25 -25 84 -8 101 24 24 71 20 89 -6z m154 9 c6
-7 12 -30 14 -51 4 -59 -42 -84 -90 -50 -27 18 -30 69 -5 96 19 21 66 24 81 5z
m-559 -369 c13 -11 35 -46 49 -76 24 -52 24 -56 8 -89 -17 -35 -20 -72 -10
-110 6 -22 10 -23 122 -23 111 0 115 -1 92 -16 -37 -25 -50 -45 -50 -76 l0
-28 -160 0 -160 0 -6 26 c-8 31 8 70 33 78 15 5 17 15 15 58 -3 34 -11 60 -23
73 -10 12 -21 34 -24 50 -5 28 -2 32 46 60 29 17 54 36 57 44 3 8 -18 1 -52
-18 -31 -18 -56 -29 -56 -24 0 19 42 74 63 83 31 12 31 12 56 -12z m245 -468
c32 -11 70 -33 85 -49 24 -26 33 -29 63 -25 35 6 35 6 42 -36 4 -24 4 -45 1
-48 -3 -3 -27 -5 -53 -4 -26 1 -72 -4 -102 -13 -83 -23 -105 -20 -150 21 -34
31 -40 42 -40 76 l0 39 73 -6 72 -7 -32 27 c-32 25 -42 45 -25 45 5 0 35 -9
66 -20z m-216 -447 c-10 -2 -26 -2 -35 0 -10 3 -2 5 17 5 19 0 27 -2 18 -5z"/>
<path d="M1500 2771 c0 -565 2 -601 40 -621 11 -6 130 -10 284 -10 l266 0 0
590 0 590 -295 0 -295 0 0 -549z m307 274 c4 -15 -55 -48 -73 -41 -17 6 -18 1
-3 -25 10 -19 12 -19 47 12 l37 33 3 -38 c4 -51 -11 -66 -69 -66 -55 0 -69 15
-69 74 0 49 22 68 78 64 25 -2 47 -8 49 -13z m-2 -244 c8 -14 -47 -53 -67 -48
-22 6 -23 -6 -3 -23 12 -10 21 -7 47 15 l33 28 3 -37 c4 -50 -11 -66 -64 -66
-53 0 -74 19 -74 70 0 22 7 45 16 54 17 17 99 22 109 7z m0 -250 c8 -13 -53
-54 -70 -47 -20 7 -19 -8 0 -24 13 -11 20 -9 43 13 16 15 31 27 35 27 12 0 8
-75 -5 -88 -18 -18 -94 -15 -112 4 -18 18 -21 76 -6 105 8 15 21 19 60 19 27
0 51 -4 55 -9z"/>
</g>
</svg>
